<?xml version="1.0" encoding="UTF-8" standalone="no"?>
<!DOCTYPE svg PUBLIC "-//W3C//DTD SVG 1.1//EN"
 "http://www.w3.org/Graphics/SVG/1.1/DTD/svg11.dtd">
<!-- Generated by graphviz version 2.38.0 (20140413.2041)
 -->
<!-- Title: name Pages: 1 -->
<svg width="538pt" height="248pt"
 viewBox="0.00 0.00 538.00 248.00" xmlns="http://www.w3.org/2000/svg" xmlns:xlink="http://www.w3.org/1999/xlink">
<g id="graph0" class="graph" transform="scale(1 1) rotate(0) translate(4 244)">
<title>name</title>
<!-- directors -->
<g id="node1" class="node"><title>directors</title>
<polygon fill="Lavender" stroke="none" points="77,-74 77,-98 185,-98 185,-74 77,-74"/>
<polygon fill="none" stroke="black" points="77,-74 77,-98 185,-98 185,-74 77,-74"/>
<text text-anchor="start" x="108" y="-82.2" font-family="Helvetica,sans-Serif" font-weight="bold" font-size="12.00">directors</text>
<polygon fill="White" stroke="none" points="77,-54 77,-74 139,-74 139,-54 77,-54"/>
<polygon fill="none" stroke="black" points="77,-54 77,-74 139,-74 139,-54 77,-54"/>
<text text-anchor="start" x="80" y="-60.2" font-family="Helvetica,sans-Serif" font-size="12.00">id</text>
<polygon fill="White" stroke="none" points="139,-54 139,-74 185,-74 185,-54 139,-54"/>
<polygon fill="none" stroke="black" points="139,-54 139,-74 185,-74 185,-54 139,-54"/>
<text text-anchor="start" x="142" y="-60.2" font-family="Helvetica,sans-Serif" font-size="12.00">int</text>
<polygon fill="White" stroke="none" points="77,-34 77,-54 139,-54 139,-34 77,-34"/>
<polygon fill="none" stroke="black" points="77,-34 77,-54 139,-54 139,-34 77,-34"/>
<text text-anchor="start" x="79.9974" y="-40.2" font-family="Helvetica,sans-Serif" font-size="12.00">first_name</text>
<polygon fill="White" stroke="none" points="139,-34 139,-54 185,-54 185,-34 139,-34"/>
<polygon fill="none" stroke="black" points="139,-34 139,-54 185,-54 185,-34 139,-34"/>
<text text-anchor="start" x="141.999" y="-40.2" font-family="Helvetica,sans-Serif" font-size="12.00">varchar</text>
<polygon fill="White" stroke="none" points="77,-14 77,-34 139,-34 139,-14 77,-14"/>
<polygon fill="none" stroke="black" points="77,-14 77,-34 139,-34 139,-14 77,-14"/>
<text text-anchor="start" x="80" y="-20.2" font-family="Helvetica,sans-Serif" font-size="12.00">last_name</text>
<polygon fill="White" stroke="none" points="139,-14 139,-34 185,-34 185,-14 139,-14"/>
<polygon fill="none" stroke="black" points="139,-14 139,-34 185,-34 185,-14 139,-14"/>
<text text-anchor="start" x="141.999" y="-20.2" font-family="Helvetica,sans-Serif" font-size="12.00">varchar</text>
</g>
<!-- directors_genres -->
<g id="node2" class="node"><title>directors_genres</title>
<polygon fill="Lavender" stroke="none" points="8,-212 8,-236 116,-236 116,-212 8,-212"/>
<polygon fill="none" stroke="black" points="8,-212 8,-236 116,-236 116,-212 8,-212"/>
<text text-anchor="start" x="17.3258" y="-220.2" font-family="Helvetica,sans-Serif" font-weight="bold" font-size="12.00">directors_genres</text>
<polygon fill="White" stroke="none" points="8,-192 8,-212 70,-212 70,-192 8,-192"/>
<polygon fill="none" stroke="black" points="8,-192 8,-212 70,-212 70,-192 8,-192"/>
<text text-anchor="start" x="10.998" y="-198.2" font-family="Helvetica,sans-Serif" font-size="12.00">director_id</text>
<polygon fill="White" stroke="none" points="70,-192 70,-212 116,-212 116,-192 70,-192"/>
<polygon fill="none" stroke="black" points="70,-192 70,-212 116,-212 116,-192 70,-192"/>
<text text-anchor="start" x="73" y="-198.2" font-family="Helvetica,sans-Serif" font-size="12.00">int</text>
<polygon fill="White" stroke="none" points="8,-172 8,-192 70,-192 70,-172 8,-172"/>
<polygon fill="none" stroke="black" points="8,-172 8,-192 70,-192 70,-172 8,-172"/>
<text text-anchor="start" x="11" y="-178.2" font-family="Helvetica,sans-Serif" font-size="12.00">genre</text>
<polygon fill="White" stroke="none" points="70,-172 70,-192 116,-192 116,-172 70,-172"/>
<polygon fill="none" stroke="black" points="70,-172 70,-192 116,-192 116,-172 70,-172"/>
<text text-anchor="start" x="72.999" y="-178.2" font-family="Helvetica,sans-Serif" font-size="12.00">varchar</text>
<polygon fill="White" stroke="none" points="8,-152 8,-172 70,-172 70,-152 8,-152"/>
<polygon fill="none" stroke="black" points="8,-152 8,-172 70,-172 70,-152 8,-152"/>
<text text-anchor="start" x="11" y="-158.2" font-family="Helvetica,sans-Serif" font-size="12.00">prob</text>
<polygon fill="White" stroke="none" points="70,-152 70,-172 116,-172 116,-152 70,-152"/>
<polygon fill="none" stroke="black" points="70,-152 70,-172 116,-172 116,-152 70,-152"/>
<text text-anchor="start" x="73" y="-158.2" font-family="Helvetica,sans-Serif" font-size="12.00">float</text>
</g>
<!-- directors_genres&#45;&gt;directors -->
<g id="edge1" class="edge"><title>directors_genres&#45;&gt;directors</title>
<path fill="none" stroke="black" d="M96.5,-147.664C96.5,-147.664 96.5,-112.449 96.5,-112.449"/>
<polygon fill="black" stroke="black" points="100,-112.448 96.5,-102.449 93.0001,-112.449 100,-112.448"/>
</g>
<!-- movies_directors -->
<g id="node3" class="node"><title>movies_directors</title>
<polygon fill="Lavender" stroke="none" points="150,-202 150,-226 250,-226 250,-202 150,-202"/>
<polygon fill="none" stroke="black" points="150,-202 150,-226 250,-226 250,-202 150,-202"/>
<text text-anchor="start" x="154.665" y="-210.2" font-family="Helvetica,sans-Serif" font-weight="bold" font-size="12.00">movies_directors</text>
<polygon fill="White" stroke="none" points="150,-182 150,-202 222,-202 222,-182 150,-182"/>
<polygon fill="none" stroke="black" points="150,-182 150,-202 222,-202 222,-182 150,-182"/>
<text text-anchor="start" x="153" y="-188.2" font-family="Helvetica,sans-Serif" font-size="12.00">director_id</text>
<polygon fill="White" stroke="none" points="222,-182 222,-202 250,-202 250,-182 222,-182"/>
<polygon fill="none" stroke="black" points="222,-182 222,-202 250,-202 250,-182 222,-182"/>
<text text-anchor="start" x="225" y="-188.2" font-family="Helvetica,sans-Serif" font-size="12.00">int</text>
<polygon fill="White" stroke="none" points="150,-162 150,-182 222,-182 222,-162 150,-162"/>
<polygon fill="none" stroke="black" points="150,-162 150,-182 222,-182 222,-162 150,-162"/>
<text text-anchor="start" x="153" y="-168.2" font-family="Helvetica,sans-Serif" font-size="12.00">movie_id</text>
<polygon fill="White" stroke="none" points="222,-162 222,-182 250,-182 250,-162 222,-162"/>
<polygon fill="none" stroke="black" points="222,-162 222,-182 250,-182 250,-162 222,-162"/>
<text text-anchor="start" x="225" y="-168.2" font-family="Helvetica,sans-Serif" font-size="12.00">int</text>
</g>
<!-- movies_directors&#45;&gt;directors -->
<g id="edge2" class="edge"><title>movies_directors&#45;&gt;directors</title>
<path fill="none" stroke="black" d="M167.5,-157.742C167.5,-157.742 167.5,-112.165 167.5,-112.165"/>
<polygon fill="black" stroke="black" points="171,-112.165 167.5,-102.165 164,-112.165 171,-112.165"/>
</g>
<!-- movies -->
<g id="node4" class="node"><title>movies</title>
<polygon fill="Lavender" stroke="none" points="293,-84 293,-108 375,-108 375,-84 293,-84"/>
<polygon fill="none" stroke="black" points="293,-84 293,-108 375,-108 375,-84 293,-84"/>
<text text-anchor="start" x="315" y="-92.2" font-family="Helvetica,sans-Serif" font-weight="bold" font-size="12.00">movies</text>
<polygon fill="White" stroke="none" points="293,-64 293,-84 329,-84 329,-64 293,-64"/>
<polygon fill="none" stroke="black" points="293,-64 293,-84 329,-84 329,-64 293,-64"/>
<text text-anchor="start" x="296" y="-70.2" font-family="Helvetica,sans-Serif" font-size="12.00">id</text>
<polygon fill="White" stroke="none" points="329,-64 329,-84 375,-84 375,-64 329,-64"/>
<polygon fill="none" stroke="black" points="329,-64 329,-84 375,-84 375,-64 329,-64"/>
<text text-anchor="start" x="332" y="-70.2" font-family="Helvetica,sans-Serif" font-size="12.00">int</text>
<polygon fill="White" stroke="none" points="293,-44 293,-64 329,-64 329,-44 293,-44"/>
<polygon fill="none" stroke="black" points="293,-44 293,-64 329,-64 329,-44 293,-44"/>
<text text-anchor="start" x="295.996" y="-50.2" font-family="Helvetica,sans-Serif" font-size="12.00">name</text>
<polygon fill="White" stroke="none" points="329,-44 329,-64 375,-64 375,-44 329,-44"/>
<polygon fill="none" stroke="black" points="329,-44 329,-64 375,-64 375,-44 329,-44"/>
<text text-anchor="start" x="331.999" y="-50.2" font-family="Helvetica,sans-Serif" font-size="12.00">varchar</text>
<polygon fill="White" stroke="none" points="293,-24 293,-44 329,-44 329,-24 293,-24"/>
<polygon fill="none" stroke="black" points="293,-24 293,-44 329,-44 329,-24 293,-24"/>
<text text-anchor="start" x="296" y="-30.2" font-family="Helvetica,sans-Serif" font-size="12.00">year</text>
<polygon fill="White" stroke="none" points="329,-24 329,-44 375,-44 375,-24 329,-24"/>
<polygon fill="none" stroke="black" points="329,-24 329,-44 375,-44 375,-24 329,-24"/>
<text text-anchor="start" x="332" y="-30.2" font-family="Helvetica,sans-Serif" font-size="12.00">int</text>
<polygon fill="White" stroke="none" points="293,-4 293,-24 329,-24 329,-4 293,-4"/>
<polygon fill="none" stroke="black" points="293,-4 293,-24 329,-24 329,-4 293,-4"/>
<text text-anchor="start" x="296" y="-10.2" font-family="Helvetica,sans-Serif" font-size="12.00">rank</text>
<polygon fill="White" stroke="none" points="329,-4 329,-24 375,-24 375,-4 329,-4"/>
<polygon fill="none" stroke="black" points="329,-4 329,-24 375,-24 375,-4 329,-4"/>
<text text-anchor="start" x="332" y="-10.2" font-family="Helvetica,sans-Serif" font-size="12.00">float</text>
</g>
<!-- movies_directors&#45;&gt;movies -->
<g id="edge3" class="edge"><title>movies_directors&#45;&gt;movies</title>
<path fill="none" stroke="black" d="M225.5,-157.86C225.5,-133.957 225.5,-107 225.5,-107 225.5,-107 274.829,-107 274.829,-107"/>
<polygon fill="black" stroke="black" points="274.829,-110.5 284.829,-107 274.829,-103.5 274.829,-110.5"/>
</g>
<!-- movies_genres -->
<g id="node5" class="node"><title>movies_genres</title>
<polygon fill="Lavender" stroke="none" points="284,-202 284,-226 384,-226 384,-202 284,-202"/>
<polygon fill="none" stroke="black" points="284,-202 284,-226 384,-226 384,-202 284,-202"/>
<text text-anchor="start" x="293.326" y="-210.2" font-family="Helvetica,sans-Serif" font-weight="bold" font-size="12.00">movies_genres</text>
<polygon fill="White" stroke="none" points="284,-182 284,-202 338,-202 338,-182 284,-182"/>
<polygon fill="none" stroke="black" points="284,-182 284,-202 338,-202 338,-182 284,-182"/>
<text text-anchor="start" x="286.998" y="-188.2" font-family="Helvetica,sans-Serif" font-size="12.00">movie_id</text>
<polygon fill="White" stroke="none" points="338,-182 338,-202 384,-202 384,-182 338,-182"/>
<polygon fill="none" stroke="black" points="338,-182 338,-202 384,-202 384,-182 338,-182"/>
<text text-anchor="start" x="341" y="-188.2" font-family="Helvetica,sans-Serif" font-size="12.00">int</text>
<polygon fill="White" stroke="none" points="284,-162 284,-182 338,-182 338,-162 284,-162"/>
<polygon fill="none" stroke="black" points="284,-162 284,-182 338,-182 338,-162 284,-162"/>
<text text-anchor="start" x="287" y="-168.2" font-family="Helvetica,sans-Serif" font-size="12.00">genre</text>
<polygon fill="White" stroke="none" points="338,-162 338,-182 384,-182 384,-162 338,-162"/>
<polygon fill="none" stroke="black" points="338,-162 338,-182 384,-182 384,-162 338,-162"/>
<text text-anchor="start" x="340.999" y="-168.2" font-family="Helvetica,sans-Serif" font-size="12.00">varchar</text>
</g>
<!-- movies_genres&#45;&gt;movies -->
<g id="edge4" class="edge"><title>movies_genres&#45;&gt;movies</title>
<path fill="none" stroke="black" d="M317.667,-157.742C317.667,-157.742 317.667,-122.046 317.667,-122.046"/>
<polygon fill="black" stroke="black" points="321.167,-122.046 317.667,-112.046 314.167,-122.046 321.167,-122.046"/>
</g>
<!-- actors -->
<g id="node6" class="node"><title>actors</title>
<polygon fill="Lavender" stroke="none" points="414,-84 414,-108 522,-108 522,-84 414,-84"/>
<polygon fill="none" stroke="black" points="414,-84 414,-108 522,-108 522,-84 414,-84"/>
<text text-anchor="start" x="451.664" y="-92.2" font-family="Helvetica,sans-Serif" font-weight="bold" font-size="12.00">actors</text>
<polygon fill="White" stroke="none" points="414,-64 414,-84 476,-84 476,-64 414,-64"/>
<polygon fill="none" stroke="black" points="414,-64 414,-84 476,-84 476,-64 414,-64"/>
<text text-anchor="start" x="417" y="-70.2" font-family="Helvetica,sans-Serif" font-size="12.00">id</text>
<polygon fill="White" stroke="none" points="476,-64 476,-84 522,-84 522,-64 476,-64"/>
<polygon fill="none" stroke="black" points="476,-64 476,-84 522,-84 522,-64 476,-64"/>
<text text-anchor="start" x="479" y="-70.2" font-family="Helvetica,sans-Serif" font-size="12.00">int</text>
<polygon fill="White" stroke="none" points="414,-44 414,-64 476,-64 476,-44 414,-44"/>
<polygon fill="none" stroke="black" points="414,-44 414,-64 476,-64 476,-44 414,-44"/>
<text text-anchor="start" x="416.997" y="-50.2" font-family="Helvetica,sans-Serif" font-size="12.00">first_name</text>
<polygon fill="White" stroke="none" points="476,-44 476,-64 522,-64 522,-44 476,-44"/>
<polygon fill="none" stroke="black" points="476,-44 476,-64 522,-64 522,-44 476,-44"/>
<text text-anchor="start" x="478.999" y="-50.2" font-family="Helvetica,sans-Serif" font-size="12.00">varchar</text>
<polygon fill="White" stroke="none" points="414,-24 414,-44 476,-44 476,-24 414,-24"/>
<polygon fill="none" stroke="black" points="414,-24 414,-44 476,-44 476,-24 414,-24"/>
<text text-anchor="start" x="417" y="-30.2" font-family="Helvetica,sans-Serif" font-size="12.00">last_name</text>
<polygon fill="White" stroke="none" points="476,-24 476,-44 522,-44 522,-24 476,-24"/>
<polygon fill="none" stroke="black" points="476,-24 476,-44 522,-44 522,-24 476,-24"/>
<text text-anchor="start" x="478.999" y="-30.2" font-family="Helvetica,sans-Serif" font-size="12.00">varchar</text>
<polygon fill="White" stroke="none" points="414,-4 414,-24 476,-24 476,-4 414,-4"/>
<polygon fill="none" stroke="black" points="414,-4 414,-24 476,-24 476,-4 414,-4"/>
<text text-anchor="start" x="417" y="-10.2" font-family="Helvetica,sans-Serif" font-size="12.00">gender</text>
<polygon fill="White" stroke="none" points="476,-4 476,-24 522,-24 522,-4 476,-4"/>
<polygon fill="none" stroke="black" points="476,-4 476,-24 522,-24 522,-4 476,-4"/>
<text text-anchor="start" x="479" y="-10.2" font-family="Helvetica,sans-Serif" font-size="12.00">char</text>
</g>
<!-- roles -->
<g id="node7" class="node"><title>roles</title>
<polygon fill="Lavender" stroke="none" points="418,-212 418,-236 518,-236 518,-212 418,-212"/>
<polygon fill="none" stroke="black" points="418,-212 418,-236 518,-236 518,-212 418,-212"/>
<text text-anchor="start" x="455" y="-220.2" font-family="Helvetica,sans-Serif" font-weight="bold" font-size="12.00">roles</text>
<polygon fill="White" stroke="none" points="418,-192 418,-212 472,-212 472,-192 418,-192"/>
<polygon fill="none" stroke="black" points="418,-192 418,-212 472,-212 472,-192 418,-192"/>
<text text-anchor="start" x="421" y="-198.2" font-family="Helvetica,sans-Serif" font-size="12.00">actor_id</text>
<polygon fill="White" stroke="none" points="472,-192 472,-212 518,-212 518,-192 472,-192"/>
<polygon fill="none" stroke="black" points="472,-192 472,-212 518,-212 518,-192 472,-192"/>
<text text-anchor="start" x="475" y="-198.2" font-family="Helvetica,sans-Serif" font-size="12.00">int</text>
<polygon fill="White" stroke="none" points="418,-172 418,-192 472,-192 472,-172 418,-172"/>
<polygon fill="none" stroke="black" points="418,-172 418,-192 472,-192 472,-172 418,-172"/>
<text text-anchor="start" x="420.998" y="-178.2" font-family="Helvetica,sans-Serif" font-size="12.00">movie_id</text>
<polygon fill="White" stroke="none" points="472,-172 472,-192 518,-192 518,-172 472,-172"/>
<polygon fill="none" stroke="black" points="472,-172 472,-192 518,-192 518,-172 472,-172"/>
<text text-anchor="start" x="475" y="-178.2" font-family="Helvetica,sans-Serif" font-size="12.00">int</text>
<polygon fill="White" stroke="none" points="418,-152 418,-172 472,-172 472,-152 418,-152"/>
<polygon fill="none" stroke="black" points="418,-152 418,-172 472,-172 472,-152 418,-152"/>
<text text-anchor="start" x="421" y="-158.2" font-family="Helvetica,sans-Serif" font-size="12.00">role</text>
<polygon fill="White" stroke="none" points="472,-152 472,-172 518,-172 518,-152 472,-152"/>
<polygon fill="none" stroke="black" points="472,-152 472,-172 518,-172 518,-152 472,-152"/>
<text text-anchor="start" x="474.999" y="-158.2" font-family="Helvetica,sans-Serif" font-size="12.00">varchar</text>
</g>
<!-- roles&#45;&gt;movies -->
<g id="edge6" class="edge"><title>roles&#45;&gt;movies</title>
<path fill="none" stroke="black" d="M409.856,-153C380.211,-153 350.333,-153 350.333,-153 350.333,-153 350.333,-122.144 350.333,-122.144"/>
<polygon fill="black" stroke="black" points="353.833,-122.144 350.333,-112.144 346.833,-122.144 353.833,-122.144"/>
</g>
<!-- roles&#45;&gt;actors -->
<g id="edge5" class="edge"><title>roles&#45;&gt;actors</title>
<path fill="none" stroke="black" d="M468,-147.664C468,-147.664 468,-122.029 468,-122.029"/>
<polygon fill="black" stroke="black" points="471.5,-122.029 468,-112.029 464.5,-122.029 471.5,-122.029"/>
</g>
</g>
</svg>
